<svg width="18" height="15" viewBox="0 0 18 15" fill="none" xmlns="http://www.w3.org/2000/svg">
<path d="M0 13.3929C0 14.2801 0.671875 15 1.5 15H16.5C17.3281 15 18 14.2801 18 13.3929V7.5H0V13.3929ZM6 11.1161C6 10.8951 6.16875 10.7143 6.375 10.7143H10.625C10.8313 10.7143 11 10.8951 11 11.1161V12.4554C11 12.6763 10.8313 12.8571 10.625 12.8571H6.375C6.16875 12.8571 6 12.6763 6 12.4554V11.1161ZM2 11.1161C2 10.8951 2.16875 10.7143 2.375 10.7143H4.625C4.83125 10.7143 5 10.8951 5 11.1161V12.4554C5 12.6763 4.83125 12.8571 4.625 12.8571H2.375C2.16875 12.8571 2 12.6763 2 12.4554V11.1161ZM18 1.60714V3.21429H0V1.60714C0 0.719866 0.671875 0 1.5 0H16.5C17.3281 0 18 0.719866 18 1.60714Z" fill="#BEBEBE"/>
</svg>
