<svg width="20" height="12" viewBox="0 0 20 12" fill="none" xmlns="http://www.w3.org/2000/svg">
<path d="M15.5 8.58525e-06C14.685 -4.39593e-05 13.8854 0.294953 13.1864 0.853511C12.4874 1.41207 11.9153 2.21322 11.5311 3.17145C11.1469 4.12968 10.9651 5.20902 11.0051 6.29426C11.0451 7.3795 11.3053 8.4299 11.758 9.33333H8.24175C8.79909 8.22115 9.06171 6.89254 8.9879 5.55856C8.91409 4.22459 8.50808 2.96174 7.83436 1.97065C7.16065 0.979552 6.25786 0.317038 5.26942 0.0883499C4.28098 -0.140338 3.26357 0.0779139 2.3788 0.708437C1.49404 1.33896 0.792671 2.34559 0.386106 3.56843C-0.0204589 4.79126 -0.108901 6.16017 0.134829 7.4577C0.378559 8.75523 0.940483 9.90695 1.73134 10.7299C2.52219 11.5529 3.49662 11.9999 4.49983 12H15.5C16.6934 12 17.838 11.3679 18.682 10.2426C19.5259 9.11742 20 7.5913 20 6C20 4.40871 19.5259 2.88258 18.682 1.75737C17.838 0.632149 16.6934 8.58525e-06 15.5 8.58525e-06ZM1.99981 6C1.99981 5.34073 2.14643 4.69627 2.42114 4.1481C2.69584 3.59994 3.08629 3.1727 3.54311 2.92041C3.99993 2.66812 4.50261 2.6021 4.98756 2.73072C5.47252 2.85934 5.91798 3.17681 6.26762 3.64298C6.61725 4.10916 6.85536 4.7031 6.95182 5.3497C7.04829 5.99631 6.99878 6.66653 6.80956 7.27562C6.62034 7.8847 6.2999 8.4053 5.88877 8.77157C5.47765 9.13784 4.99429 9.33333 4.49983 9.33333C3.83678 9.33333 3.20089 8.98215 2.73205 8.35703C2.2632 7.7319 1.99981 6.88406 1.99981 6ZM15.5 9.33333C15.0055 9.33333 14.5221 9.13784 14.111 8.77157C13.6999 8.4053 13.3794 7.8847 13.1902 7.27562C13.001 6.66653 12.9515 5.99631 13.048 5.3497C13.1444 4.7031 13.3825 4.10916 13.7322 3.64298C14.0818 3.17681 14.5273 2.85934 15.0122 2.73072C15.4972 2.6021 15.9998 2.66812 16.4567 2.92041C16.9135 3.1727 17.3039 3.59994 17.5786 4.1481C17.8534 4.69627 18 5.34073 18 6C18 6.88406 17.7366 7.7319 17.2677 8.35703C16.7989 8.98215 16.163 9.33333 15.5 9.33333Z" fill="black"/>
</svg>
