<svg width="18" height="18" viewBox="0 0 18 18" fill="none" xmlns="http://www.w3.org/2000/svg">
<path d="M12.2142 5.51613C11.6878 2.2754 10.4465 0 9.00181 0C7.55717 0 6.31579 2.2754 5.78947 5.51613H12.2142ZM5.51724 9C5.51724 9.80564 5.5608 10.5786 5.63702 11.3226H12.363C12.4392 10.5786 12.4828 9.80564 12.4828 9C12.4828 8.19436 12.4392 7.42137 12.363 6.67742H5.63702C5.5608 7.42137 5.51724 8.19436 5.51724 9ZM17.3031 5.51613C16.265 3.05202 14.1633 1.14677 11.5681 0.377419C12.4537 1.60403 13.0635 3.45121 13.3829 5.51613H17.3031ZM6.43194 0.377419C3.84029 1.14677 1.73503 3.05202 0.700544 5.51613H4.62069C4.93648 3.45121 5.54628 1.60403 6.43194 0.377419ZM17.6915 6.67742H13.5281C13.6044 7.43952 13.6479 8.21976 13.6479 9C13.6479 9.78024 13.6044 10.5605 13.5281 11.3226H17.6878C17.8875 10.5786 18 9.80564 18 9C18 8.19436 17.8875 7.42137 17.6915 6.67742ZM4.35572 9C4.35572 8.21976 4.39927 7.43952 4.4755 6.67742H0.31216C0.116152 7.42137 0 8.19436 0 9C0 9.80564 0.116152 10.5786 0.31216 11.3226H4.47187C4.39927 10.5605 4.35572 9.78024 4.35572 9ZM5.78947 12.4839C6.31579 15.7246 7.55717 18 9.00181 18C10.4465 18 11.6878 15.7246 12.2142 12.4839H5.78947ZM11.5717 17.6226C14.1633 16.8532 16.2686 14.948 17.3067 12.4839H13.3866C13.0672 14.5488 12.4573 16.396 11.5717 17.6226ZM0.700544 12.4839C1.73866 14.948 3.84029 16.8532 6.43557 17.6226C5.54991 16.396 4.94011 14.5488 4.62069 12.4839H0.700544Z" fill="#004585"/>
</svg>
