<svg width="20" height="15" viewBox="0 0 20 15" fill="none" xmlns="http://www.w3.org/2000/svg">
<path d="M13.3406 8.64612C14.6551 8.64612 16.557 8.37735 16.557 6.82596C16.5656 6.56494 16.5906 6.75548 15.7414 3.09891C15.5609 2.35729 15.4023 2.02076 14.0887 1.36976C13.0695 0.853148 10.8496 0 10.193 0C9.58125 0 9.40391 0.781117 8.67461 0.781117C7.97148 0.781117 7.45156 0.197893 6.79492 0.197893C6.16445 0.197893 5.75352 0.623887 5.43633 1.49988C4.36211 4.50314 4.40977 4.37611 4.41602 4.53102C4.41602 5.49144 8.23008 8.64031 13.3406 8.64031V8.64612ZM16.7578 7.45643C16.9395 8.30842 16.9395 8.39943 16.9395 8.51173C16.9395 9.97018 15.2859 10.7796 13.1113 10.7796C8.19961 10.7827 3.89609 7.92735 3.89609 6.04213C3.89568 5.77949 3.94966 5.51957 4.05469 5.27844C2.2875 5.36597 0 5.67849 0 7.68066C0 10.9596 7.83711 15 14.0426 15C18.8 15 20 12.8669 20 11.1823C20 9.85749 18.8441 8.35334 16.7605 7.45527" fill="#70736D"/>
</svg>
