<svg width="106" height="89" viewBox="0 0 106 89" fill="none" xmlns="http://www.w3.org/2000/svg">
    <ellipse cx="40" cy="35" rx="40" ry="35" fill="#F1A9A9"/>
    <ellipse cx="48" cy="54" rx="40" ry="35" fill="white"/>
    <path d="M105.5 38C105.5 56.9932 87.8801 72.5 66 72.5C44.1199 72.5 26.5 56.9932 26.5 38C26.5 19.0068 44.1199 3.5 66 3.5C87.8801 3.5 105.5 19.0068 105.5 38Z" fill="#ED9090" stroke="white"/>
    <path d="M59.0703 47L53.5508 24.6758L50.668 24.6055C49.2617 24.6055 48.3125 24.8984 47.8203 25.4844C47.4922 25.9062 47.1641 26.7031 46.8359 27.875L41.457 47H43.9883L45.5703 41.0938H54.8867L56.3633 47H59.0703ZM49.332 27.3125C49.4023 27.125 49.5195 27.0195 49.6836 26.9961H51.5117L54.3945 38.7734H46.2031L49.332 27.3125ZM64.0625 53.6797V47.0352L69.2305 47.1055C71.1758 47.1055 72.3945 46.5898 72.8867 45.5586C73.1445 45.0195 73.2734 44.3164 73.2734 43.4492V33.0781C73.2734 31.2734 72.6523 30.1719 71.4102 29.7734C70.8945 29.6094 70.2383 29.5273 69.4414 29.5273H66.9102C65.3164 29.5508 64.3438 30.1484 63.9922 31.3203L63.7461 29.7734H61.4609V53.6797H64.0625ZM64.0625 31.9883C64.1094 31.8008 64.2266 31.6953 64.4141 31.6719H70.3203C70.5078 31.7188 70.6133 31.8242 70.6367 31.9883V44.6445C70.5898 44.832 70.4844 44.9375 70.3203 44.9609L64.0625 44.8906V31.9883ZM79.5312 53.6797V47.0352L84.6992 47.1055C86.6445 47.1055 87.8633 46.5898 88.3555 45.5586C88.6133 45.0195 88.7422 44.3164 88.7422 43.4492V33.0781C88.7422 31.2734 88.1211 30.1719 86.8789 29.7734C86.3633 29.6094 85.707 29.5273 84.9102 29.5273H82.3789C80.7852 29.5508 79.8125 30.1484 79.4609 31.3203L79.2148 29.7734H76.9297V53.6797H79.5312ZM79.5312 31.9883C79.5781 31.8008 79.6953 31.6953 79.8828 31.6719H85.7891C85.9766 31.7188 86.082 31.8242 86.1055 31.9883V44.6445C86.0586 44.832 85.9531 44.9375 85.7891 44.9609L79.5312 44.8906V31.9883Z" fill="white"/>
    <path d="M56.7631 72.263L53.4343 68.3749H54.7105C55.086 68.3749 55.4181 68.1601 55.5764 67.8137C55.7347 67.4683 55.6827 67.0721 55.4397 66.7804L52.1842 62.8751H53.388C53.7672 62.8751 54.1089 62.6452 54.2572 62.2903C54.4039 61.941 54.3347 61.5345 54.0805 61.2556L49.4858 56.2079C49.2346 55.9307 48.7658 55.9307 48.5142 56.2079L43.919 61.2556C43.6649 61.5345 43.5961 61.941 43.7424 62.2903C43.8907 62.6452 44.2328 62.8751 44.612 62.8751H45.8158L42.5599 66.7812C42.3178 67.0726 42.2657 67.4683 42.4236 67.8142C42.5819 68.1601 42.9136 68.3749 43.2895 68.3749H44.5657L41.2369 72.263C40.9869 72.5548 40.9302 72.9544 41.0886 73.3054C41.2448 73.6513 41.5886 73.8747 41.964 73.8747H47.6666V74.9253L46.4045 77.0049C46.1829 77.462 46.5054 78 47.0008 78H50.9992C51.4946 78 51.8171 77.462 51.5955 77.0049L50.3334 74.9253V73.8747H56.036C56.4114 73.8747 56.7552 73.6513 56.9114 73.3054C57.0698 72.9544 57.0131 72.5548 56.7631 72.263Z" fill="white"/>
    <path d="M20 7C15.0293 7 11 11.0293 11 16C11 20.9707 15.0293 25 20 25C24.9707 25 29 20.9707 29 16C29 11.0293 24.9707 7 20 7ZM25.8065 14.8206V15.0721C25.8065 15.2851 25.686 15.48 25.4954 15.575L24.9369 15.8545C24.8482 15.8989 24.7494 15.919 24.6504 15.9128C24.5514 15.9066 24.4558 15.8744 24.3733 15.8193L23.7125 15.3787C23.6412 15.3312 23.56 15.3006 23.4751 15.2892C23.3902 15.2779 23.3039 15.286 23.2226 15.313L23.1264 15.345C22.7744 15.4622 22.6307 15.8817 22.8365 16.1905L23.3169 16.9112C23.4211 17.0677 23.5967 17.1617 23.7847 17.1617H24.0827C24.3933 17.1617 24.6452 17.4135 24.6452 17.7242V18.1357C24.6452 18.2573 24.6056 18.3759 24.5327 18.4732L23.8526 19.3797C23.801 19.4487 23.7658 19.5285 23.7499 19.6131L23.5938 20.4416C23.5713 20.561 23.5107 20.6698 23.4211 20.7522C23.0772 21.0672 22.7725 21.4225 22.5138 21.8104L22.041 22.5199C21.949 22.6579 21.8244 22.771 21.6782 22.8492C21.5321 22.9275 21.3688 22.9684 21.203 22.9685C20.8216 22.9685 20.4729 22.7529 20.3023 22.4118C20.1035 22.0141 20 21.5757 20 21.1311V20.0464C20 19.7357 19.7481 19.4839 19.4375 19.4839H18.4983C17.9725 19.4839 17.4684 19.2748 17.0964 18.9032C16.7247 18.5314 16.5159 18.0271 16.5158 17.5013V16.9911C16.5158 16.3673 16.8097 15.7797 17.3087 15.4052L18.3096 14.6544C18.6528 14.397 19.0702 14.2578 19.4992 14.2577H19.5315C19.8392 14.2577 20.143 14.3292 20.4181 14.4671L20.9523 14.7342C21.0858 14.801 21.24 14.8119 21.3816 14.7647L23.0985 14.1924C23.3282 14.1158 23.4831 13.901 23.4831 13.6589C23.4831 13.3483 23.2313 13.0964 22.9206 13.0964H22.5545C22.4053 13.0964 22.2623 13.0373 22.1567 12.9317L21.9056 12.6805C21.8534 12.6283 21.7914 12.5868 21.7231 12.5586C21.6549 12.5303 21.5817 12.5158 21.5079 12.5158H18.2399C17.9293 12.5158 17.6774 12.2639 17.6774 11.9533V11.7936C17.6774 11.5356 17.8531 11.3106 18.1035 11.2478L18.6279 11.1168C18.7636 11.0827 18.8819 10.9996 18.9596 10.8831L19.2528 10.4436C19.3569 10.2872 19.5326 10.1932 19.7206 10.1932H20.5992C20.9098 10.1932 21.1617 9.94133 21.1617 9.63069V8.84319C24.0366 9.30915 26.3457 11.4644 27.0378 14.2581H26.369C26.0583 14.2581 25.8065 14.5099 25.8065 14.8206Z" fill="white"/>
</svg>
