<svg width="15" height="19" viewBox="0 0 15 19" fill="none" xmlns="http://www.w3.org/2000/svg">
<path d="M13.3929 9.50002H5.08929V5.67405C5.08929 4.20452 6.15067 2.98362 7.47656 2.96878C8.81585 2.95394 9.91071 4.15999 9.91071 5.64065V6.2344C9.91071 6.72795 10.269 7.12502 10.7143 7.12502H11.7857C12.231 7.12502 12.5893 6.72795 12.5893 6.2344V5.64065C12.5893 2.52347 10.2958 -0.0110963 7.48326 3.65348e-05C4.67076 0.0111693 2.41071 2.57913 2.41071 5.69632V9.50002H1.60714C0.719866 9.50002 0 10.2979 0 11.2813V17.2188C0 18.2021 0.719866 19 1.60714 19H13.3929C14.2801 19 15 18.2021 15 17.2188V11.2813C15 10.2979 14.2801 9.50002 13.3929 9.50002ZM8.83929 15.1406C8.83929 15.9607 8.23996 16.625 7.5 16.625C6.76004 16.625 6.16071 15.9607 6.16071 15.1406V13.3594C6.16071 12.5393 6.76004 11.875 7.5 11.875C8.23996 11.875 8.83929 12.5393 8.83929 13.3594V15.1406Z" fill="#BEBEBE"/>
</svg>
