<svg width="10" height="18" viewBox="0 0 10 18" fill="none" xmlns="http://www.w3.org/2000/svg">
<path d="M3.88889 11.1426V16.6514L4.65347 17.8123C4.8184 18.0626 5.18195 18.0626 5.34688 17.8123L6.11111 16.6514V11.1426C5.75035 11.2101 5.37986 11.2502 5 11.2502C4.62014 11.2502 4.24965 11.2101 3.88889 11.1426ZM5 0C2.23854 0 0 2.26657 0 5.0626C0 7.85863 2.23854 10.1252 5 10.1252C7.76146 10.1252 10 7.85863 10 5.0626C10 2.26657 7.76146 0 5 0ZM5 2.67193C3.69792 2.67193 2.63889 3.74421 2.63889 5.0626C2.63889 5.29534 2.45208 5.48448 2.22222 5.48448C1.99236 5.48448 1.80556 5.29534 1.80556 5.0626C1.80556 3.27909 3.23889 1.82816 5 1.82816C5.22986 1.82816 5.41667 2.01731 5.41667 2.25004C5.41667 2.48278 5.22986 2.67193 5 2.67193Z" fill="black"/>
</svg>
