<svg width="23" height="25" viewBox="0 0 23 25" fill="none" xmlns="http://www.w3.org/2000/svg">
<path d="M17.75 15.625C16.6461 15.625 15.6315 16.0068 14.8306 16.6453L9.82637 13.5176C9.97456 12.8473 9.97456 12.1527 9.82637 11.4823L14.8306 8.35469C15.6315 8.99321 16.6461 9.375 17.75 9.375C20.3388 9.375 22.4375 7.27632 22.4375 4.6875C22.4375 2.09868 20.3388 0 17.75 0C15.1612 0 13.0625 2.09868 13.0625 4.6875C13.0625 5.03701 13.1011 5.37744 13.1736 5.70513L8.16943 8.83276C7.36851 8.19429 6.35391 7.8125 5.25 7.8125C2.66118 7.8125 0.5625 9.91118 0.5625 12.5C0.5625 15.0888 2.66118 17.1875 5.25 17.1875C6.35391 17.1875 7.36851 16.8057 8.16943 16.1672L13.1736 19.2949C13.0997 19.629 13.0624 19.9703 13.0625 20.3125C13.0625 22.9013 15.1612 25 17.75 25C20.3388 25 22.4375 22.9013 22.4375 20.3125C22.4375 17.7237 20.3388 15.625 17.75 15.625Z" fill="#4B4B4B"/>
</svg>
