<svg width="8" height="25" viewBox="0 0 8 25" fill="none" xmlns="http://www.w3.org/2000/svg">
<path d="M4 8.87097C6.21111 8.87097 8 10.494 8 12.5C8 14.506 6.21111 16.129 4 16.129C1.78889 16.129 0 14.506 0 12.5C0 10.494 1.78889 8.87097 4 8.87097ZM0 3.62903C0 5.63508 1.78889 7.25806 4 7.25806C6.21111 7.25806 8 5.63508 8 3.62903C8 1.62298 6.21111 0 4 0C1.78889 0 0 1.62298 0 3.62903ZM0 21.371C0 23.377 1.78889 25 4 25C6.21111 25 8 23.377 8 21.371C8 19.3649 6.21111 17.7419 4 17.7419C1.78889 17.7419 0 19.3649 0 21.371Z" fill="white"/>
</svg>
